<?xml version="1.0" encoding="UTF-8" standalone="no"?>
<svg width="28px" height="23px" viewBox="0 0 28 23" version="1.1" xmlns="http://www.w3.org/2000/svg" xmlns:xlink="http://www.w3.org/1999/xlink">
    <!-- Generator: Sketch 43.2 (39069) - http://www.bohemiancoding.com/sketch -->
    <title>Shape</title>
    <desc>Created with Sketch.</desc>
    <defs></defs>
    <g id="Page-1" stroke="none" stroke-width="1" fill="none" fill-rule="evenodd">
        <g id="Desktop-Portrait" transform="translate(-627.000000, -215.000000)" fill-rule="nonzero" fill="#FF8EAB">
            <g id="cat-post-copy-2" transform="translate(166.000000, 177.000000)">
                <g id="social" transform="translate(394.000000, 35.000000)">
                    <g id="heart" transform="translate(67.000000, 3.000000)">
                        <path d="M20.6158105,2.23596825 C23.6540456,2.23596825 26.1260457,4.70796842 26.1260457,7.74649272 C26.1260457,14.9016434 16.5098841,19.6215211 13.8513561,20.7892723 C11.2353391,19.6241238 1.87424346,14.9493598 1.87424346,7.74649272 C1.87424346,4.70796842 4.34595443,2.23596825 7.38418954,2.23596825 C9.49065295,2.23596825 11.3828262,3.40979238 12.3226953,5.29907374 L14.0017351,8.67450495 L15.6790399,5.29820617 C16.617463,3.40950319 18.5090579,2.23596825 20.6158105,2.23596825 L20.6158105,2.23596825 Z M20.6158105,0.362013984 C17.7158084,0.362013984 15.208527,2.03324573 14.0005784,4.46475923 C12.7911838,2.03324573 10.2853484,0.362013984 7.38418954,0.362013984 C3.30718225,0.362013984 0,3.66775028 0,7.74678191 C0,17.489609 13.846729,22.8231489 13.846729,22.8231489 C13.846729,22.8231489 28,17.4222276 28,7.74678191 C28.0002892,3.66775028 24.6936853,0.362013984 20.6158105,0.362013984 L20.6158105,0.362013984 Z" id="Shape"></path>
                    </g>
                </g>
            </g>
        </g>
    </g>
</svg>